#!OML:ASF X:\für Bonn\!DataBase\2005_08_12_Daniel\c3d\Daniel.ASF
:FULLY-SPECIFIED
:DEGREES
127
root 5.23384 16.6784 0.443345 157.338 -103.25 -170.778
lowerback 8.64255 -7.09585 -10.0607
upperback 4.17565 -10.4565 -5.06534
thorax 0.401544 -5.41882 1.01885
lowerneck 15.223 8.4223 0.631859
upperneck 9.25591 10.501 3.96624
head 0.261322 4.95185 0.681081
rclavicle 2.52457e-014 1.27222e-014
rhumerus -49.2697 0.507849 -79.0639
rradius 33.8042
rwrist 22.542
rhand -21.496 22.3824
rfingers 7.12502
rthumb 4.89542 -7.54102
lclavicle 2.52457e-014 1.27222e-014
lhumerus 9.86346 -13.1553 61.7517
lradius 117.852
lwrist 15.0387
lhand -17.8233 -22.1216
lfingers 7.12502
lthumb 8.44083 7.68969
rfemur -15.2621 -9.06596 18.613
rtibia 50.4003
rfoot -26.1985 -15.1389
rtoes -4.30225
lfemur 4.95191 -6.55423 -15.3107
ltibia 55.0789
lfoot -22.1905 -9.71796
ltoes -17.4035
128
root 5.32948 16.6674 0.481401 157.284 -103.272 -170.345
lowerback 8.6056 -7.22271 -10.2876
upperback 4.03712 -10.6412 -4.9926
thorax 0.348624 -5.50519 1.2208
lowerneck 15.0203 8.40946 0.880142
upperneck 9.36254 10.5219 3.74192
head 0.353629 4.97656 0.586294
rclavicle -7.31528e-014 -4.45278e-014
rhumerus -48.6729 0.106119 -79.0584
rradius 34.035
rwrist 22.0425
rhand -21.5055 22.3019
rfingers 7.12502
rthumb 4.88626 -7.62174
lclavicle -7.31528e-014 -4.45278e-014
lhumerus 9.36602 -13.2405 62.1002
lradius 117.913
lwrist 14.7895
lhand -17.9656 -22.1604
lfingers 7.12502
lthumb 8.30349 7.65636
rfemur -16.1834 -9.00207 18.3928
rtibia 50.6629
rfoot -25.9685 -15.1985
rtoes -4.36417
lfemur 5.32039 -6.20959 -15.3346
ltibia 53.5477
lfoot -23.3445 -10.4464
ltoes -17.0738
129
root 5.43001 16.6536 0.520974 157.155 -103.287 -169.839
lowerback 8.58812 -7.33502 -10.4931
upperback 3.90779 -10.8086 -4.9377
thorax 0.287105 -5.58247 1.39483
lowerneck 14.7664 8.38806 1.12783
upperneck 9.47079 10.5313 3.55007
head 0.451771 4.9963 0.50461
rclavicle 1.19171e-013 5.56597e-014
rhumerus -48.0742 -0.35551 -79.12
rradius 34.2835
rwrist 21.5484
rhand -21.6283 22.0848
rfingers 7.12502
rthumb 4.76766 -7.84154
lclavicle 1.19171e-013 5.56597e-014
lhumerus 8.88575 -13.3776 62.4736
lradius 117.96
lwrist 14.5069
lhand -18.1278 -22.1398
lfingers 7.12502
lthumb 8.147 7.68312
rfemur -17.1427 -8.96125 18.1476
rtibia 50.9561
rfoot -25.696 -15.2476
rtoes -4.41273
lfemur 5.58066 -5.81324 -15.3718
ltibia 52.1748
lfoot -24.3703 -11.1661
ltoes -16.6511
130
root 5.53318 16.6417 0.561184 156.835 -103.279 -169.145
lowerback 8.59568 -7.42119 -10.714
upperback 3.77531 -10.9476 -4.89277
thorax 0.207836 -5.64481 1.5695
lowerneck 14.4501 8.36343 1.34669
upperneck 9.62581 10.5291 3.37008
head 0.571333 5.01026 0.435682
rclavicle 1.10325e-013 -1.74931e-014
rhumerus -47.4862 -0.877181 -79.2181
rradius 34.5282
rwrist 21.0214
rhand -21.7826 21.7755
rfingers 7.12502
rthumb 4.61871 -8.15415
lclavicle 1.10325e-013 -1.74931e-014
lhumerus 8.37261 -13.5233 62.8949
lradius 118.02
lwrist 14.2258
lhand -18.2439 -22.0557
lfingers 7.12502
lthumb 8.03492 7.77152
rfemur -18.1006 -8.90402 17.8591
rtibia 51.2236
rfoot -25.3854 -15.2839
rtoes -4.50703
lfemur 5.76233 -5.39811 -15.4828
ltibia 50.9437
lfoot -25.3663 -11.7704
ltoes -16.2616
131
root 5.6399 16.6344 0.60256 156.5 -103.278 -168.46
lowerback 8.65003 -7.50007 -10.9108
upperback 3.65516 -11.0819 -4.85137
thorax 0.111091 -5.70401 1.7343
lowerneck 14.1039 8.35533 1.45795
upperneck 9.7572 10.534 3.2609
head 0.67735 5.02444 0.404479
rclavicle 1.81888e-014 1.43125e-014
rhumerus -46.8697 -1.4542 -79.3245
rradius 34.745
rwrist 20.5302
rhand -21.9633 21.5108
rfingers 7.12502
rthumb 4.4442 -8.42258
lclavicle 1.81888e-014 1.43125e-014
lhumerus 7.77762 -13.684 63.412
lradius 118.109
lwrist 13.907
lhand -18.3446 -21.9524
lfingers 7.12502
lthumb 7.9378 7.87861
rfemur -19.0014 -8.88341 17.5509
rtibia 51.4132
rfoot -24.9953 -15.3138
rtoes -4.51373
lfemur 5.87092 -5.03578 -15.6445
ltibia 49.8557
lfoot -26.3855 -12.27
ltoes -16.155
132
root 5.74762 16.6343 0.64386 156.021 -103.262 -167.648
lowerback 8.71794 -7.56512 -11.1015
upperback 3.54941 -11.2005 -4.83463
thorax 0.0149945 -5.75586 1.87147
lowerneck 13.7703 8.34358 1.55252
upperneck 9.85289 10.5331 3.17325
head 0.767793 5.03477 0.380939
rclavicle -1.63997e-014 -3.18055e-014
rhumerus -46.2502 -2.08578 -79.4876
rradius 34.958
rwrist 20.0758
rhand -22.1932 21.2201
rfingers 7.12502
rthumb 4.22217 -8.71778
lclavicle -1.63997e-014 -3.18055e-014
lhumerus 7.05025 -13.8371 63.9423
lradius 118.229
lwrist 13.5981
lhand -18.4467 -21.8157
lfingers 7.12502
lthumb 7.83925 8.01894
rfemur -19.8239 -8.81933 17.2239
rtibia 51.4979
rfoot -24.5571 -15.386
rtoes -4.53149
lfemur 5.94456 -4.7592 -15.9194
ltibia 48.8892
lfoot -27.3861 -12.516
ltoes -16.1774
133
root 5.85729 16.6397 0.685347 155.485 -103.254 -166.801
lowerback 8.82594 -7.61367 -11.2688
upperback 3.44938 -11.3027 -4.83527
thorax -0.106467 -5.79824 1.98503
lowerneck 13.4654 8.32705 1.6583
upperneck 9.92247 10.5283 3.08935
head 0.846006 5.04287 0.355109
rclavicle -1.21954e-013 1.74931e-014
rhumerus -45.6605 -2.78357 -79.6653
rradius 35.1807
rwrist 19.6416
rhand -22.402 21.0421
rfingers 7.12502
rthumb 4.0206 -8.8997
lclavicle -1.21954e-013 1.74931e-014
lhumerus 6.18404 -14.0061 64.5643
lradius 118.355
lwrist 13.3282
lhand -18.4851 -21.7007
lfingers 7.12502
lthumb 7.80213 8.13535
rfemur -20.5666 -8.72461 16.8812
rtibia 51.4767
rfoot -24.0747 -15.481
rtoes -4.5518
lfemur 5.98133 -4.5347 -16.2598
ltibia 48.0268
lfoot -28.2926 -12.6221
ltoes -16.1368
134
root 5.96838 16.6479 0.727426 154.907 -103.223 -165.918
lowerback 8.93985 -7.65059 -11.4295
upperback 3.3536 -11.3898 -4.82429
thorax -0.226843 -5.83296 2.10714
lowerneck 13.1134 8.30936 1.71358
upperneck 10.0057 10.5151 3.01155
head 0.932622 5.04599 0.341212
rclavicle 5.66536e-014 -4.77083e-015
rhumerus -45.0607 -3.46584 -79.8491
rradius 35.3839
rwrist 19.2765
rhand -22.5646 20.9759
rfingers 7.12502
rthumb 3.86356 -8.96883
lclavicle 5.66536e-014 -4.77083e-015
lhumerus 5.24047 -14.159 65.2493
lradius 118.477
lwrist 13.0807
lhand -18.5747 -21.5077
lfingers 7.12502
lthumb 7.71571 8.33153
rfemur -21.2773 -8.65358 16.538
rtibia 51.3779
rfoot -23.5128 -15.586
rtoes -4.69749
lfemur 5.9595 -4.33533 -16.6461
ltibia 47.2721
lfoot -29.115 -12.6056
ltoes -16.0468
135
root 6.07948 16.6589 0.769352 154.288 -103.18 -165.03
lowerback 9.07867 -7.66714 -11.5655
upperback 3.27513 -11.4527 -4.83887
thorax -0.355354 -5.85573 2.19308
lowerneck 12.7767 8.27454 1.8324
upperneck 10.0818 10.4873 2.91624
head 1.01923 5.04343 0.312202
rclavicle 8.79622e-014 -4.77083e-014
rhumerus -44.4973 -4.21836 -80.0635
rradius 35.5861
rwrist 18.9813
rhand -22.6333 21.0478
rfingers 7.12502
rthumb 3.79723 -8.89814
lclavicle 8.79622e-014 -4.77083e-014
lhumerus 4.27511 -14.334 65.9226
lradius 118.623
lwrist 12.9474
lhand -18.6432 -21.241
lfingers 7.12502
lthumb 7.64951 8.6007
rfemur -21.916 -8.54964 16.1951
rtibia 51.2084
rfoot -22.8841 -15.7039
rtoes -4.72779
lfemur 5.8992 -4.11521 -17.049
ltibia 46.612
lfoot -29.8744 -12.4839
ltoes -15.8885
136
root 6.1918 16.6699 0.811504 153.634 -103.129 -164.135
lowerback 9.23661 -7.66795 -11.7091
upperback 3.21815 -11.4979 -4.85819
thorax -0.473045 -5.87108 2.27839
lowerneck 12.4561 8.22948 1.98872
upperneck 10.1239 10.4528 2.79584
head 1.09636 5.03861 0.268536
rclavicle -6.10269e-014 -7.95139e-015
rhumerus -43.9363 -4.95854 -80.3117
rradius 35.7797
rwrist 18.7768
rhand -22.6265 21.2322
rfingers 7.12502
rthumb 3.80374 -8.71357
lclavicle -6.10269e-014 -7.95139e-015
lhumerus 3.32058 -14.5155 66.602
lradius 118.735
lwrist 12.8618
lhand -18.682 -20.8597
lfingers 7.12502
lthumb 7.61212 8.98327
rfemur -22.5191 -8.43713 15.8522
rtibia 50.9976
rfoot -22.1989 -15.8501
rtoes -4.76903
lfemur 5.78837 -3.92244 -17.5085
ltibia 46.0492
lfoot -30.6081 -12.148
ltoes -15.9446
137
root 6.30276 16.6836 0.853588 152.916 -103.057 -163.216
lowerback 9.41239 -7.65504 -11.8783
upperback 3.17351 -11.5288 -4.85898
thorax -0.580042 -5.88035 2.39605
lowerneck 12.1635 8.18848 2.11803
upperneck 10.1347 10.422 2.67385
head 1.15819 5.03416 0.226104
rclavicle 4.07509e-014 -3.97569e-014
rhumerus -43.3915 -5.74207 -80.5482
rradius 35.9668
rwrist 18.6779
rhand -22.5324 21.5162
rfingers 7.12502
rthumb 3.89465 -8.42797
lclavicle 4.07509e-014 -3.97569e-014
lhumerus 2.35289 -14.6499 67.3107
lradius 118.803
lwrist 12.8668
lhand -18.758 -20.4534
lfingers 7.12502
lthumb 7.53874 9.39225
rfemur -23.0556 -8.31238 15.5122
rtibia 50.7394
rfoot -21.4799 -15.9957
rtoes -4.87658
lfemur 5.65608 -3.75788 -18.0146
ltibia 45.5544
lfoot -31.3027 -11.6671
ltoes -16.1135
138
root 6.41338 16.701 0.89545 152.251 -102.951 -162.348
lowerback 9.56919 -7.61867 -12.0001
upperback 3.13781 -11.5226 -4.87766
thorax -0.684868 -5.87133 2.46708
lowerneck 11.9287 8.11645 2.34246
upperneck 10.0935 10.3647 2.502
head 1.2027 5.01869 0.151063
rclavicle 7.75757e-014 -1.90833e-014
rhumerus -42.9017 -6.56641 -80.8306
rradius 36.1493
rwrist 18.6619
rhand -22.4194 21.8581
rfingers 7.12502
rthumb 4.0038 -8.08407
lclavicle 7.75757e-014 -1.90833e-014
lhumerus 1.38964 -14.8357 67.9889
lradius 118.79
lwrist 12.8801
lhand -18.8659 -20.0838
lfingers 7.12502
lthumb 7.4346 9.76558
rfemur -23.5778 -8.14935 15.2119
rtibia 50.4485
rfoot -20.6896 -16.1806
rtoes -4.98011
lfemur 5.4735 -3.62105 -18.5334
ltibia 45.101
lfoot -31.9043 -11.051
ltoes -16.2083
139
root 6.52353 16.7176 0.937658 151.589 -102.824 -161.5
lowerback 9.71737 -7.58197 -12.1361
upperback 3.11485 -11.514 -4.87546
thorax -0.764491 -5.86287 2.56308
lowerneck 11.6918 8.0612 2.52897
upperneck 10.0522 10.3246 2.33296
head 1.24545 5.01025 0.0819321
rclavicle -6.41081e-015 5.40694e-014
rhumerus -42.4027 -6.96265 -81.3152
rradius 36.341
rwrist 18.3139
rhand -22.3428 22.0899
rfingers 7.12502
rthumb 4.07773 -7.85078
lclavicle -6.41081e-015 5.40694e-014
lhumerus 0.39714 -14.9649 68.6868
lradius 118.728
lwrist 12.9017
lhand -18.954 -19.7448
lfingers 7.12502
lthumb 7.34956 10.1076
rfemur -24.075 -7.96565 14.9254
rtibia 50.1395
rfoot -19.8871 -16.3417
rtoes -5.03654
lfemur 5.29852 -3.56336 -19.0945
ltibia 44.6608
lfoot -32.4285 -10.3201
ltoes -16.3319
